<svg width="360" height="722" viewBox="0 0 360 722" fill="none" xmlns="http://www.w3.org/2000/svg">
<path fill-rule="evenodd" clip-rule="evenodd" d="M54.7402 0.751953C25.4998 0.751953 1.96094 24.2909 1.96094 53.5312V668.209C1.96094 697.449 25.4998 720.99 54.7402 720.99H161.703L163.889 717.893H171.646H188.353H196.109L198.297 720.99H305.26C334.5 720.99 358.039 697.449 358.039 668.209V249.648H345.164H345.164C344.22 249.648 343.459 248.887 343.459 247.943V168.782V168.782C343.459 167.897 344.128 167.175 344.989 167.088C345.047 167.082 345.105 167.079 345.164 167.079H358.039V53.5312C358.039 24.2909 334.5 0.751953 305.26 0.751953H54.7402ZM55.7793 22.2012C38.0112 22.2012 23.707 36.5054 23.707 54.2734V667.469C23.707 685.237 38.0112 699.541 55.7793 699.541H304.221C321.989 699.541 336.293 685.237 336.293 667.469V54.2734C336.293 36.5054 321.989 22.2012 304.221 22.2012H272.848C271.427 22.2013 270.064 22.7658 269.059 23.7704C268.055 24.7751 267.49 26.1378 267.49 27.5586V30.0254C267.49 39.6789 259.72 47.4512 250.066 47.4512H109.934C100.28 47.4512 92.5098 39.6789 92.5098 30.0254V27.5586C92.5096 26.1378 91.9452 24.7751 90.9405 23.7705C89.9358 22.7658 88.5732 22.2013 87.1523 22.2012H55.7793Z" fill="black"/>
<path d="M14.8366 97.7256H1.70463C0.76319 97.7256 0 98.4888 0 99.4302V124.053C0 124.994 0.76319 125.757 1.70463 125.757H14.8366C15.7781 125.757 16.5412 124.994 16.5412 124.053V99.4302C16.5412 98.4888 15.7781 97.7256 14.8366 97.7256Z" fill="black"/>
<mask id="mask0_188_5146" style="mask-type:luminance" maskUnits="userSpaceOnUse" x="0" y="97" width="17" height="29">
<path d="M14.8366 97.7256H1.70463C0.76319 97.7256 0 98.4888 0 99.4302V124.053C0 124.994 0.76319 125.757 1.70463 125.757H14.8366C15.7781 125.757 16.5412 124.994 16.5412 124.053V99.4302C16.5412 98.4888 15.7781 97.7256 14.8366 97.7256Z" fill="white"/>
</mask>
<g mask="url(#mask0_188_5146)">
<g filter="url(#filter0_f_188_5146)">
<path d="M2.06738 99.2466C1.22548 99.2466 0.547852 99.9242 0.547852 100.766V122.717C0.547852 123.559 1.22548 124.237 2.06738 124.237H2.54004V99.2466H2.06738Z" fill="url(#paint0_linear_188_5146)"/>
</g>
</g>
<path d="M1.70508 150.002C0.760712 150.002 0 150.761 0 151.705V200.509C0 201.453 0.760712 202.214 1.70508 202.214H14.8359C15.7803 202.214 16.541 201.453 16.541 200.509V151.705C16.541 150.761 15.7803 150.002 14.8359 150.002H1.70508Z" fill="black"/>
<mask id="mask1_188_5146" style="mask-type:luminance" maskUnits="userSpaceOnUse" x="0" y="150" width="17" height="53">
<path d="M1.70508 150.002C0.760712 150.002 0 150.761 0 151.705V200.509C0 201.453 0.760712 202.214 1.70508 202.214H14.8359C15.7803 202.214 16.541 201.453 16.541 200.509V151.705C16.541 150.761 15.7803 150.002 14.8359 150.002H1.70508Z" fill="white"/>
</mask>
<g mask="url(#mask1_188_5146)">
<g filter="url(#filter1_f_188_5146)">
<path d="M2.06738 151.522C1.22548 151.522 0.547852 152.2 0.547852 153.042V199.173C0.547852 200.015 1.22548 200.693 2.06738 200.693H2.54004V151.522H2.06738Z" fill="url(#paint1_linear_188_5146)"/>
</g>
</g>
<path d="M1.70508 215.662C0.760712 215.662 0 216.42 0 217.365V266.168C0 267.113 0.760712 267.873 1.70508 267.873H14.8359C15.7803 267.873 16.541 267.113 16.541 266.168V217.365C16.541 216.42 15.7803 215.662 14.8359 215.662H1.70508Z" fill="black"/>
<mask id="mask2_188_5146" style="mask-type:luminance" maskUnits="userSpaceOnUse" x="0" y="215" width="17" height="53">
<path d="M1.70508 215.662C0.760712 215.662 0 216.42 0 217.365V266.168C0 267.113 0.760712 267.873 1.70508 267.873H14.8359C15.7803 267.873 16.541 267.113 16.541 266.168V217.365C16.541 216.42 15.7803 215.662 14.8359 215.662H1.70508Z" fill="white"/>
</mask>
<g mask="url(#mask2_188_5146)">
<g filter="url(#filter2_f_188_5146)">
<path d="M2.06738 217.182C1.22548 217.182 0.547852 217.859 0.547852 218.701V264.833C0.547852 265.675 1.22548 266.352 2.06738 266.352H2.54004V217.182H2.06738Z" fill="url(#paint2_linear_188_5146)"/>
</g>
</g>
<path d="M3.16211 74.9336H7.32809V70.0098H3.16211V74.9336Z" fill="#7D7E7F"/>
<path d="M3.16211 647.058H7.32809V74.9336H3.16211V647.058Z" fill="#EBEBEB"/>
<path d="M3.16211 651.984H7.32809V647.059H3.16211V651.984Z" fill="#7D7E7F"/>
<path d="M356.838 651.984H352.672V668.461C352.672 695.043 331.272 716.443 304.689 716.443H55.3105C28.7284 716.443 7.32809 695.043 7.32809 668.461V651.984H3.16211V666.281C3.16211 695.96 27.0558 719.854 56.7343 719.854H303.266C332.944 719.854 356.838 695.96 356.838 666.281V651.984Z" fill="#EBEBEB"/>
<path d="M356.838 647.059H352.672V651.984H356.838V647.059Z" fill="#7D7E7F"/>
<path d="M356.838 74.9336H352.672V647.058H356.838V74.9336Z" fill="#EBEBEB"/>
<path d="M356.838 70.0098H352.672V74.9336H356.838V70.0098Z" fill="#7D7E7F"/>
<path d="M56.7343 2.26562C27.0558 2.26562 3.16211 26.1593 3.16211 55.8379V70.0098H7.32809V54.2246C7.32809 27.6424 28.7284 6.24414 55.3105 6.24414H304.689C331.272 6.24414 352.672 27.6424 352.672 54.2246V70.0098H356.838V55.8379C356.838 26.1593 332.944 2.26562 303.266 2.26562H56.7343Z" fill="#EBEBEB"/>
<mask id="mask3_188_5146" style="mask-type:luminance" maskUnits="userSpaceOnUse" x="3" y="2" width="354" height="718">
<path d="M56.7344 2.01367C27.0558 2.01367 3.16211 25.9074 3.16211 55.5859V666.029C3.16211 695.708 27.0558 719.601 56.7344 719.601H303.266C332.944 719.601 356.838 695.708 356.838 666.029V55.5859C356.838 25.9074 332.944 2.01367 303.266 2.01367H56.7344ZM55.3106 5.99219H304.689C331.272 5.99219 352.672 27.3905 352.672 53.9727V668.209C352.672 694.791 331.272 716.191 304.689 716.191H55.3106C28.7284 716.191 7.32813 694.791 7.32813 668.209V53.9727C7.32813 27.3905 28.7284 5.99219 55.3106 5.99219Z" fill="white"/>
</mask>
<g mask="url(#mask3_188_5146)">
<g filter="url(#filter3_f_188_5146)">
<path fill-rule="evenodd" clip-rule="evenodd" d="M37.9241 11.58C31.3373 11.4122 18.7834 13.4059 5.89281 27.8925C-12.8572 48.964 3.92797 36.2851 3.92797 36.2851C3.92797 36.2851 15.4464 18.4288 31.5178 16.1074C47.5892 13.786 42.678 12.1777 42.678 12.1777C42.678 12.1777 40.9181 11.6563 37.9241 11.58ZM322.076 11.58C319.082 11.6563 317.322 12.1777 317.322 12.1777C317.322 12.1777 312.411 13.786 328.483 16.1074C344.554 18.4288 356.072 36.2851 356.072 36.2851C356.072 36.2851 372.858 48.964 354.108 27.8925C341.217 13.4059 328.663 11.4122 322.076 11.58ZM-2.43922 681.941C-3.87749 681.769 -2.89625 684.23 5.89281 694.107C24.6428 715.179 42.678 709.822 42.678 709.822C42.678 709.822 47.5892 708.214 31.5178 705.892C15.4464 703.571 3.92797 685.715 3.92797 685.715C3.92797 685.715 -0.809168 682.137 -2.43922 681.941ZM362.44 681.941C360.81 682.137 356.072 685.715 356.072 685.715C356.072 685.715 344.554 703.571 328.483 705.892C312.411 708.214 317.322 709.822 317.322 709.822C317.322 709.822 335.358 715.179 354.108 694.107C362.897 684.23 363.878 681.769 362.44 681.941Z" fill="#434343"/>
</g>
</g>
<path d="M325.152 15.3634C323.977 15.247 324.532 16.418 327.167 18.8594C335.864 26.9146 341.263 38.5735 341.263 51.5508V361.123V670.695C341.263 683.673 335.864 695.332 327.167 703.387C324.532 705.828 323.977 706.999 325.152 706.883C325.856 706.813 327.184 706.28 329.056 705.281C341.765 698.501 349.146 683.873 349.146 668.336V361.123V53.9102C349.146 38.3734 341.765 23.7453 329.056 16.9649C327.184 15.9662 325.856 15.4331 325.152 15.3634Z" fill="url(#paint3_linear_188_5146)"/>
<path d="M34.8477 15.3634C36.0222 15.2471 35.4678 16.418 32.832 18.8594C24.1358 26.9146 18.7363 38.5735 18.7363 51.5508V361.123V670.695C18.7363 683.673 24.1358 695.332 32.832 703.387C35.4678 705.828 36.0222 706.999 34.8477 706.883C34.1429 706.813 32.8155 706.28 30.9434 705.281C18.2339 698.501 10.8535 683.873 10.8535 668.336V361.123V53.9102C10.8535 38.3734 18.2339 23.7453 30.9434 16.9649C32.8155 15.9662 34.1429 15.4331 34.8477 15.3634Z" fill="url(#paint4_linear_188_5146)"/>
<path d="M199.063 27.4468H161.563C160.059 27.4468 158.84 28.666 158.84 30.17C158.84 31.674 160.059 32.8932 161.563 32.8932H199.063C200.567 32.8932 201.786 31.674 201.786 30.17C201.786 28.666 200.567 27.4468 199.063 27.4468Z" fill="#1E1E1E"/>
<path d="M218.891 34.902C221.698 34.902 223.973 32.6265 223.973 29.8196C223.973 27.0127 221.698 24.7373 218.891 24.7373C216.084 24.7373 213.809 27.0127 213.809 29.8196C213.809 32.6265 216.084 34.902 218.891 34.902Z" fill="#2B2B2B"/>
<path d="M218.892 33.8919C221.141 33.8919 222.964 32.0687 222.964 29.8197C222.964 27.5707 221.141 25.7476 218.892 25.7476C216.643 25.7476 214.819 27.5707 214.819 29.8197C214.819 32.0687 216.643 33.8919 218.892 33.8919Z" fill="#0A0D13"/>
<path d="M218.892 32.9222C220.605 32.9222 221.994 31.533 221.994 29.8195C221.994 28.1059 220.605 26.7168 218.892 26.7168C217.178 26.7168 215.789 28.1059 215.789 29.8195C215.789 31.533 217.178 32.9222 218.892 32.9222Z" fill="#091427"/>
<g filter="url(#filter4_f_188_5146)">
<path fill-rule="evenodd" clip-rule="evenodd" d="M216.756 27.7437C216.388 27.7824 215.865 28.3439 215.826 29.4477C215.788 30.5515 216.272 31.1518 216.543 31.1518C216.814 31.1518 217.937 29.5445 216.756 27.7437Z" fill="#235A91" fill-opacity="0.556075"/>
</g>
<g filter="url(#filter5_f_188_5146)">
<path fill-rule="evenodd" clip-rule="evenodd" d="M219.398 27.3574C218.817 27.5359 218.706 28.4734 218.728 29.0091C218.751 29.5449 219.509 30.9511 220.425 30.6386C221.34 30.3261 221.496 29.1654 221.117 28.3841C220.737 27.6029 220.045 27.0449 219.398 27.3574Z" fill="#235A91" fill-opacity="0.556075"/>
</g>
<path d="M152.092 30.288C152.092 31.3452 151.673 32.3592 150.927 33.1081C150.18 33.857 149.168 34.2796 148.111 34.2835C147.054 34.2874 146.038 33.8722 145.286 33.1288C144.535 32.3855 144.108 31.3745 144.101 30.3174C144.093 29.2603 144.504 28.2432 145.245 27.4889C145.986 26.7345 146.995 26.3044 148.052 26.2927C149.109 26.2811 150.128 26.6888 150.885 27.4266C151.642 28.1644 152.076 29.1722 152.091 30.2292L148.096 30.288H152.092Z" fill="#0F0F0F"/>
<path d="M129.433 30.3819C129.433 31.9511 128.802 33.4565 127.676 34.5681C126.551 35.6798 125.023 36.3073 123.429 36.313C121.834 36.3188 120.302 35.7025 119.169 34.599C118.035 33.4955 117.392 31.9948 117.38 30.4255C117.368 28.8563 117.989 27.3465 119.106 26.2267C120.223 25.1069 121.746 24.4684 123.34 24.451C124.935 24.4337 126.471 25.039 127.613 26.1342C128.755 27.2295 129.409 28.7255 129.433 30.2946L123.407 30.3819H129.433Z" fill="#101010"/>
<path d="M55.2725 9.74072C46.5849 9.74072 38.5034 12.2254 31.6807 16.5142V22.2017C38.1829 17.9366 45.9674 15.4536 54.3584 15.4536H154.183H206.323H306.147C314.538 15.4536 322.323 17.9366 328.825 22.2017V16.5142C322.002 12.2254 313.921 9.74072 305.233 9.74072H206.323H154.183H55.2725Z" fill="url(#paint5_linear_188_5146)"/>
<path d="M55.2725 712.001C46.5849 712.001 38.5034 709.516 31.6807 705.228V699.54C38.1829 703.805 45.9674 706.288 54.3584 706.288H154.183H206.323H306.147C314.538 706.288 322.323 703.805 328.825 699.54V705.228C322.002 709.516 313.921 712.001 305.233 712.001H206.323H154.183H55.2725Z" fill="url(#paint6_linear_188_5146)"/>
<path d="M250.953 29.7425C250.953 31.852 250.108 33.8756 248.602 35.3699C247.097 36.8643 245.054 37.7077 242.921 37.7155C240.788 37.7233 238.739 36.8947 237.223 35.4113C235.706 33.928 234.846 31.9107 234.83 29.8012C234.815 27.6918 235.645 25.6622 237.139 24.1569C238.633 22.6516 240.67 21.7933 242.802 21.77C244.935 21.7467 246.99 22.5603 248.518 24.0326C250.045 25.5049 250.921 27.5159 250.952 29.6252L242.891 29.7425H250.953Z" fill="#0F0F0F"/>
<defs>
<filter id="filter0_f_188_5146" x="0.00820333" y="98.7069" width="3.07148" height="26.0695" filterUnits="userSpaceOnUse" color-interpolation-filters="sRGB">
<feFlood flood-opacity="0" result="BackgroundImageFix"/>
<feBlend mode="normal" in="SourceGraphic" in2="BackgroundImageFix" result="shape"/>
<feGaussianBlur stdDeviation="0.269824" result="effect1_foregroundBlur_188_5146"/>
</filter>
<filter id="filter1_f_188_5146" x="0.00820333" y="150.982" width="3.07148" height="50.2502" filterUnits="userSpaceOnUse" color-interpolation-filters="sRGB">
<feFlood flood-opacity="0" result="BackgroundImageFix"/>
<feBlend mode="normal" in="SourceGraphic" in2="BackgroundImageFix" result="shape"/>
<feGaussianBlur stdDeviation="0.269824" result="effect1_foregroundBlur_188_5146"/>
</filter>
<filter id="filter2_f_188_5146" x="0.00820333" y="216.642" width="3.07148" height="50.2502" filterUnits="userSpaceOnUse" color-interpolation-filters="sRGB">
<feFlood flood-opacity="0" result="BackgroundImageFix"/>
<feBlend mode="normal" in="SourceGraphic" in2="BackgroundImageFix" result="shape"/>
<feGaussianBlur stdDeviation="0.269824" result="effect1_foregroundBlur_188_5146"/>
</filter>
<filter id="filter3_f_188_5146" x="-3.51483" y="11.0384" width="367.03" height="699.925" filterUnits="userSpaceOnUse" color-interpolation-filters="sRGB">
<feFlood flood-opacity="0" result="BackgroundImageFix"/>
<feBlend mode="normal" in="SourceGraphic" in2="BackgroundImageFix" result="shape"/>
<feGaussianBlur stdDeviation="0.266206" result="effect1_foregroundBlur_188_5146"/>
</filter>
<filter id="filter4_f_188_5146" x="215.59" y="27.5094" width="1.93033" height="3.87662" filterUnits="userSpaceOnUse" color-interpolation-filters="sRGB">
<feFlood flood-opacity="0" result="BackgroundImageFix"/>
<feBlend mode="normal" in="SourceGraphic" in2="BackgroundImageFix" result="shape"/>
<feGaussianBlur stdDeviation="0.117104" result="effect1_foregroundBlur_188_5146"/>
</filter>
<filter id="filter5_f_188_5146" x="218.491" y="27.0348" width="3.0524" height="3.88297" filterUnits="userSpaceOnUse" color-interpolation-filters="sRGB">
<feFlood flood-opacity="0" result="BackgroundImageFix"/>
<feBlend mode="normal" in="SourceGraphic" in2="BackgroundImageFix" result="shape"/>
<feGaussianBlur stdDeviation="0.117104" result="effect1_foregroundBlur_188_5146"/>
</filter>
<linearGradient id="paint0_linear_188_5146" x1="2.54004" y1="99.2466" x2="2.54004" y2="124.237" gradientUnits="userSpaceOnUse">
<stop stop-color="#CBCBCB" stop-opacity="0.27451"/>
<stop offset="0.05" stop-color="#CBCBCB"/>
<stop offset="0.95" stop-color="#CBCBCB"/>
<stop offset="1" stop-color="#CBCBCB" stop-opacity="0.275701"/>
</linearGradient>
<linearGradient id="paint1_linear_188_5146" x1="2.54004" y1="151.522" x2="2.54004" y2="200.693" gradientUnits="userSpaceOnUse">
<stop stop-color="#CBCBCB" stop-opacity="0.27451"/>
<stop offset="0.05" stop-color="#CBCBCB"/>
<stop offset="0.95" stop-color="#CBCBCB"/>
<stop offset="1" stop-color="#CBCBCB" stop-opacity="0.275701"/>
</linearGradient>
<linearGradient id="paint2_linear_188_5146" x1="2.54004" y1="217.182" x2="2.54004" y2="266.352" gradientUnits="userSpaceOnUse">
<stop stop-color="#CBCBCB" stop-opacity="0.27451"/>
<stop offset="0.05" stop-color="#CBCBCB"/>
<stop offset="0.95" stop-color="#CBCBCB"/>
<stop offset="1" stop-color="#CBCBCB" stop-opacity="0.275701"/>
</linearGradient>
<linearGradient id="paint3_linear_188_5146" x1="340.224" y1="361.123" x2="349.146" y2="361.123" gradientUnits="userSpaceOnUse">
<stop stop-color="#404040"/>
<stop offset="0.6" stop-color="#838383"/>
<stop offset="1" stop-color="#A7A7A7"/>
</linearGradient>
<linearGradient id="paint4_linear_188_5146" x1="19.7756" y1="361.123" x2="10.8535" y2="361.123" gradientUnits="userSpaceOnUse">
<stop stop-color="#404040"/>
<stop offset="0.6" stop-color="#838383"/>
<stop offset="1" stop-color="#A7A7A7"/>
</linearGradient>
<linearGradient id="paint5_linear_188_5146" x1="31.6807" y1="22.2017" x2="328.825" y2="22.2017" gradientUnits="userSpaceOnUse">
<stop stop-color="#4F4F4F" stop-opacity="0.130841"/>
<stop offset="0.07" stop-color="#4F4F4F"/>
<stop offset="0.937" stop-color="#4F4F4F" stop-opacity="0.953271"/>
<stop offset="1" stop-color="#4F4F4F" stop-opacity="0"/>
</linearGradient>
<linearGradient id="paint6_linear_188_5146" x1="31.6807" y1="699.54" x2="328.825" y2="699.54" gradientUnits="userSpaceOnUse">
<stop stop-color="#4F4F4F" stop-opacity="0.130841"/>
<stop offset="0.07" stop-color="#4F4F4F"/>
<stop offset="0.937" stop-color="#4F4F4F" stop-opacity="0.953271"/>
<stop offset="1" stop-color="#4F4F4F" stop-opacity="0"/>
</linearGradient>
</defs>
</svg>
